<?xml version="1.0" encoding="UTF-8" standalone="no"?>
<svg
   xmlns:dc="http://purl.org/dc/elements/1.1/"
   xmlns:cc="http://creativecommons.org/ns#"
   xmlns:rdf="http://www.w3.org/1999/02/22-rdf-syntax-ns#"
   xmlns:svg="http://www.w3.org/2000/svg"
   xmlns="http://www.w3.org/2000/svg"
   xmlns:sodipodi="http://sodipodi.sourceforge.net/DTD/sodipodi-0.dtd"
   xmlns:inkscape="http://www.inkscape.org/namespaces/inkscape"
   width="375"
   height="300"
   viewBox="0 0 375 300"
   version="1.1"
   id="svg50"
   sodipodi:docname="illustration-about-me-mobile.svg"
   inkscape:version="0.92.5 (2060ec1f9f, 2020-04-08)"
   style="fill:none">
  <metadata
     id="metadata54">
    <rdf:RDF>
      <cc:Work
         rdf:about="">
        <dc:format>image/svg+xml</dc:format>
        <dc:type
           rdf:resource="http://purl.org/dc/dcmitype/StillImage" />
        <dc:title></dc:title>
      </cc:Work>
    </rdf:RDF>
  </metadata>
  <sodipodi:namedview
     pagecolor="#ffffff"
     bordercolor="#666666"
     borderopacity="1"
     objecttolerance="10"
     gridtolerance="10"
     guidetolerance="10"
     inkscape:pageopacity="0"
     inkscape:pageshadow="2"
     inkscape:window-width="1294"
     inkscape:window-height="704"
     id="namedview52"
     showgrid="false"
     inkscape:zoom="1.4216216"
     inkscape:cx="187.5"
     inkscape:cy="185"
     inkscape:window-x="72"
     inkscape:window-y="27"
     inkscape:window-maximized="1"
     inkscape:current-layer="svg50" />
  <g
     clip-path="url(#clip0_48_989)"
     id="g43"
     transform="translate(0,-90)">
    <path
       d="m -35.2046,382.247 100.7379,-1.302 -39.0367,-10.74 4.3999,-9.307 24.9672,-3.426 -6.3953,-1.483 -17.1905,-0.767 z"
       id="path2"
       inkscape:connector-curvature="0"
       style="fill:#172b4d" />
    <path
       d="m 20.5105,334.716 -3.0698,0.051 -25.52988,-9.512 28.85548,16.364 4.7069,-3.886 z"
       id="path4"
       inkscape:connector-curvature="0"
       style="fill:#36b37e" />
    <path
       d="m 20.5107,334.715 49.6785,-9.103 -24.8137,24.087 z"
       id="path6"
       inkscape:connector-curvature="0"
       style="fill:#172b4d" />
    <path
       d="m -8.08918,325.255 49.57608,28.177 -11.1533,2.046 -27.32059,1.994 z"
       stroke-miterlimit="10"
       id="path8"
       inkscape:connector-curvature="0"
       style="fill:#ffffff;stroke:#36b37e;stroke-width:0.633632;stroke-linejoin:round;stroke-miterlimit:10" />
    <path
       d="M 41.4871,353.432 70.189,325.612 49.4684,355.989 Z"
       stroke-miterlimit="10"
       id="path10"
       inkscape:connector-curvature="0"
       style="fill:#ffffff;stroke:#36b37e;stroke-width:0.633632;stroke-linejoin:round;stroke-miterlimit:10" />
    <path
       d="m 20.7665,341.619 12.8418,-10.586 1.3302,1.074 -4.0418,15.291 z"
       stroke-miterlimit="10"
       id="path12"
       inkscape:connector-curvature="0"
       style="fill:#ffffff;stroke:#36b37e;stroke-width:0.633632;stroke-linejoin:round;stroke-miterlimit:10" />
    <path
       d="m 34.9383,332.107 11.6138,16.467 -5.065,4.858 -10.5906,-6.034 z"
       stroke-miterlimit="10"
       id="path14"
       inkscape:connector-curvature="0"
       style="fill:#ffffff;stroke:#36b37e;stroke-width:0.633632;stroke-linejoin:round;stroke-miterlimit:10" />
    <path
       d="m 49.4685,355.989 -19.1346,-0.512 11.1533,-2.045 z"
       stroke-miterlimit="10"
       id="path16"
       inkscape:connector-curvature="0"
       style="fill:#ffffff;stroke:#36b37e;stroke-width:0.633632;stroke-linejoin:round;stroke-miterlimit:10" />
    <path
       d="M -16.6331,348.113 47.6265,325.612 19.6408,362.688 Z"
       stroke-miterlimit="10"
       id="path18"
       inkscape:connector-curvature="0"
       style="fill:#c5e9da;stroke:#36b37e;stroke-width:0.633632;stroke-miterlimit:10" />
    <path
       d="m -56.7443,341.567 72.0874,26.848 -14.478838,5.114 -36.018162,8.336 z"
       stroke-miterlimit="10"
       id="path20"
       inkscape:connector-curvature="0"
       style="fill:#ffffff;stroke:#36b37e;stroke-width:0.633632;stroke-linejoin:round;stroke-miterlimit:10" />
    <path
       d="m 15.3431,368.416 32.2833,-42.804 -21.13,44.593 z"
       stroke-miterlimit="10"
       id="path22"
       inkscape:connector-curvature="0"
       style="fill:#ffffff;stroke:#36b37e;stroke-width:0.633632;stroke-linejoin:round;stroke-miterlimit:10" />
    <path
       d="m -14.7914,357.217 14.8881398,-16.723 1.9953202,1.074 -2.1488046,21.12 z"
       id="path24"
       inkscape:connector-curvature="0"
       style="fill:#36b37e" />
    <path
       d="m 2.09206,341.567 18.87884,19.382 -5.6279,7.466 -15.3997474,-5.727 z"
       stroke-miterlimit="10"
       id="path26"
       inkscape:connector-curvature="0"
       style="fill:#ffffff;stroke:#36b37e;stroke-width:0.633632;stroke-linejoin:round;stroke-miterlimit:10" />
    <path
       d="M 26.4964,370.205 0.864197,373.529 15.3431,368.415 Z"
       stroke-miterlimit="10"
       id="path28"
       inkscape:connector-curvature="0"
       style="fill:#ffffff;stroke:#36b37e;stroke-width:0.633632;stroke-linejoin:round;stroke-miterlimit:10" />
    <mask
       id="mask0_48_989"
       maskUnits="userSpaceOnUse"
       x="-58"
       y="341"
       width="74"
       height="41">
      <path
         d="m -56.8336,341.759 72.0413,26.55 -14.266324,4.914 -36.018176,8.335 z"
         stroke-miterlimit="10"
         id="path30"
         inkscape:connector-curvature="0"
         style="fill:#ffffff;stroke:#36b37e;stroke-width:0.633632;stroke-linejoin:round;stroke-miterlimit:10" />
    </mask>
    <g
       mask="url(#mask0_48_989)"
       id="g41">
      <path
         d="m -13.4611,369.489 -7.8278,0.256 -3.6325,-6.29 -7.5209,0.307 3.5302,6.239 -7.4185,0.204 3.4279,6.291 7.572,-0.154 7.7255,-0.204 3.786,6.596 8.08357,-0.102 3.99065,6.751 h 8.39059 l -4.09297,-6.853 -4.04181,-6.699 -8.18594,0.153 z"
         id="path33"
         inkscape:connector-curvature="0"
         style="fill:#c5e9da" />
      <path
         d="m 2.75744,368.927 -8.2371,0.307 3.99064,6.597 8.33943,-0.205 8.59529,-0.205 -4.2465,-6.75 -4.14414,-6.597 -8.28827,0.358 z"
         id="path35"
         inkscape:connector-curvature="0"
         style="fill:#36b37e" />
      <path
         d="m -0.977467,349.238 -8.032453,0.512 3.83716,6.239 8.18594,-0.409 z"
         id="path37"
         inkscape:connector-curvature="0"
         style="fill:#36b37e" />
      <path
         d="m 15.5991,361.665 -4.2465,-6.546 -8.33941,0.46 4.0418,6.495 z"
         id="path39"
         inkscape:connector-curvature="0"
         style="fill:#36b37e" />
    </g>
  </g>
  <defs
     id="defs48">
    <clipPath
       id="clip0_48_989">
      <rect
         width="127.445"
         height="64.383904"
         transform="translate(-57,325)"
         id="rect45"
         x="0"
         y="0"
         style="fill:#ffffff" />
    </clipPath>
    <mask
       id="mask0_73_259"
       maskUnits="userSpaceOnUse"
       x="-1"
       y="28"
       width="68"
       height="56">
      <path
         style="fill:#ffffff;stroke:#36b37e;stroke-width:0.598795;stroke-miterlimit:10"
         inkscape:connector-curvature="0"
         d="m 66.1968,66.8676 v -2.3551 c 0,0 -5.1511,-10.2056 -5.887,-10.3037 C 59.5739,54.1107 -0.277244,29.1855 -0.277244,29.1855 l 22.812144,44.404 9.0267,9.6168 z"
         stroke-miterlimit="10"
         id="path6-3" />
    </mask>
  </defs>
  <path
     inkscape:connector-curvature="0"
     style="fill:#172b4d"
     d="m 378.26727,67.0531 44.0052,14.9649 h -63.1379 l -8.0947,-0.883 -3.9246,-2.453 13.3929,-11.6289 z"
     id="path2-6" />
  <path
     inkscape:connector-curvature="0"
     style="fill:#ffffff;stroke:#36b37e;stroke-width:0.598795;stroke-miterlimit:10"
     d="m 372.47817,39.577 v -2.3551 c 0,0 -5.1511,-10.2056 -5.887,-10.3037 -0.7358,-0.0981 -60.58699,-25.0233 -60.58699,-25.0233 l 22.81209,44.404 9.0268,9.6168 z"
     stroke-miterlimit="10"
     id="path4-7" />
  <g
     transform="translate(306.46447,-27.024)"
     mask="url(#mask0_73_259)"
     id="g33">
    <path
       style="fill:#c5e9da"
       inkscape:connector-curvature="0"
       d="m 41.043,55.0712 -7.5059,0.2453 -3.4341,-6.0841 -7.2116,0.3435 3.385,5.9369 -7.1625,0.2453 3.336,6.035 7.2116,-0.1472 7.4568,-0.1963 3.6303,6.2804 7.7022,-0.0491 3.8265,6.4766 h 8.0946 l -3.9737,-6.5747 -3.8756,-6.4766 -7.8002,0.1963 z"
       id="path9" />
    <path
       style="fill:#36b37e"
       inkscape:connector-curvature="0"
       d="m 37.4616,48.9371 -3.5322,-5.9859 -7.2606,0.3925 3.434,5.8878 z"
       id="path11" />
    <path
       style="fill:#36b37e"
       inkscape:connector-curvature="0"
       d="m 48.7453,54.7769 -3.7285,-6.1822 -7.5549,0.3435 3.5812,6.1331 z"
       id="path13" />
    <path
       style="fill:#36b37e"
       inkscape:connector-curvature="0"
       d="m 52.7678,48.2503 -3.7775,-6.1331 -7.6041,0.3925 3.6303,6.0841 z"
       id="path15" />
    <path
       style="fill:#36b37e"
       inkscape:connector-curvature="0"
       d="m 56.6434,54.531 -7.8983,0.2454 3.7774,6.3294 8.0456,-0.1472 8.2418,-0.1963 -4.0718,-6.4766 -3.9738,-6.3785 -7.9965,0.3435 z"
       id="path17" />
    <path
       style="fill:#172b4d"
       inkscape:connector-curvature="0"
       d="m 15.876,49.8703 7.0153,-0.2944 -3.2869,-5.8878 7.0644,-0.3435 -3.3359,-5.8387 -6.9663,0.4415 -6.81912,0.4416 3.13972,5.6916 -6.77004,0.3434 -6.573815,0.3435 2.992555,5.6916 6.67193,-0.2944 3.13977,5.8387 6.9662,-0.2453 z"
       id="path19" />
    <path
       style="fill:#36b37e"
       inkscape:connector-curvature="0"
       d="M 5.37747,56.1992 8.46814,62.087 15.3854,61.9398 12.1475,56.0029 Z"
       id="path21" />
    <path
       style="fill:#36b37e"
       inkscape:connector-curvature="0"
       d="M -0.0679492,33.2856 2.87555,38.8299 9.54749,38.3883 6.45681,32.7949 Z"
       id="path23" />
    <path
       style="fill:#36b37e"
       inkscape:connector-curvature="0"
       d="m 33.9295,42.9516 7.4568,-0.4416 -3.5812,-5.9369 -3.4832,-5.8387 -7.2115,0.5397 -7.0644,0.5397 3.2869,5.6916 7.1625,-0.4416 z"
       id="path25" />
    <path
       style="fill:#36b37e"
       inkscape:connector-curvature="0"
       d="m 53.0132,35.5918 -7.7021,0.4906 3.6793,6.0351 7.8494,-0.3926 z"
       id="path27" />
    <path
       style="fill:#36b37e"
       inkscape:connector-curvature="0"
       d="m 68.9081,47.5635 -4.0228,-6.2803 -8.0456,0.4416 3.9247,6.1822 z"
       id="path29" />
    <path
       style="fill:#36b37e"
       inkscape:connector-curvature="0"
       d="m 15.3855,61.9392 3.2869,6.0841 7.1625,-0.0982 -3.385,-6.1331 z"
       id="path31" />
  </g>
  <path
     inkscape:connector-curvature="0"
     style="fill:#172b4d"
     d="m 359.13447,38.0063 -27.4726,5.8878 -0.6868,1.8154 6.1323,8.3901 z"
     id="path35-5" />
  <path
     inkscape:connector-curvature="0"
     style="fill:#ffffff;stroke:#36b37e;stroke-width:0.598795;stroke-miterlimit:10"
     d="m 382.58427,45.5137 -5.5436,-4.7103 -8.5852,-6.5256 -21.7328,8.7336 -0.9812,5.2499 5.2983,7.507 z"
     stroke-miterlimit="10"
     id="path37-3" />
  <path
     inkscape:connector-curvature="0"
     style="fill:#ffffff;stroke:#36b37e;stroke-width:0.598795;stroke-miterlimit:10"
     d="m 371.44817,49.0949 16.0421,-5.2009 -9.223,23.1587 -13.2458,0.8341 z"
     stroke-miterlimit="10"
     id="path39-5" />
  <path
     inkscape:connector-curvature="0"
     style="fill:#ffffff;stroke:#36b37e;stroke-width:0.598795;stroke-miterlimit:10"
     d="m 354.22857,54.6395 -3.1887,1.1285 -1.4718,20.951 1.4718,4.416 13.9816,-13.2479 6.4266,-18.792 z"
     stroke-miterlimit="10"
     id="path41" />
  <path
     inkscape:connector-curvature="0"
     style="fill:#c5e9da;stroke:#36b37e;stroke-width:0.598795;stroke-miterlimit:10"
     d="m 397.15467,40.8031 27.7178,14.9649 -70.6438,-1.1285 z"
     stroke-miterlimit="10"
     id="path43" />
  <path
     inkscape:connector-curvature="0"
     style="fill:#ffffff;stroke:#36b37e;stroke-width:0.598795;stroke-miterlimit:10"
     d="m 351.03977,55.7682 v -3.4346 l -22.2234,-30.5676 -2.9435,4.6612 21.2423,52.2548 2.4529,-1.963 z"
     stroke-miterlimit="10"
     id="path45" />
  <path
     inkscape:connector-curvature="0"
     style="fill:#ffffff;stroke:#36b37e;stroke-width:0.598795;stroke-miterlimit:10"
     d="m 328.81637,21.7658 -2.9435,4.6611 -9.90981,9.2243 7.84931,-15.8481 z"
     stroke-miterlimit="10"
     id="path47" />
  <path
     inkscape:connector-curvature="0"
     style="fill:#172b4d"
     d="m 381.79947,58.1237 -27.5708,-3.4836 28.7972,0.4906 z"
     id="path49" />
  <path
     inkscape:connector-curvature="0"
     style="fill:#172b4d"
     d="m 357.22117,53.707 -9.6155,-7.9976 -0.3924,1.3738 3.8265,5.25 v 3.4346 z"
     id="path51" />
  <path
     inkscape:connector-curvature="0"
     style="fill:#c5e9da;stroke:#36b37e;stroke-width:0.598795;stroke-miterlimit:10"
     d="m 345.05487,73.677 -2.2567,2.797 -2.9435,-2.797 -15.3553,-45.9251 1.3737,-1.3247 z"
     stroke-miterlimit="10"
     id="path53" />
</svg>
