<?xml version="1.0" encoding="UTF-8" standalone="no"?>
<svg
   xmlns:dc="http://purl.org/dc/elements/1.1/"
   xmlns:cc="http://creativecommons.org/ns#"
   xmlns:rdf="http://www.w3.org/1999/02/22-rdf-syntax-ns#"
   xmlns:svg="http://www.w3.org/2000/svg"
   xmlns="http://www.w3.org/2000/svg"
   xmlns:sodipodi="http://sodipodi.sourceforge.net/DTD/sodipodi-0.dtd"
   xmlns:inkscape="http://www.inkscape.org/namespaces/inkscape"
   width="1440"
   height="331"
   viewBox="0 0 1440 331"
   fill="none"
   version="1.1"
   id="svg4973"
   sodipodi:docname="illustration about me desktop.svg"
   inkscape:version="0.92.5 (2060ec1f9f, 2020-04-08)">
  <metadata
     id="metadata4977">
    <rdf:RDF>
      <cc:Work
         rdf:about="">
        <dc:format>image/svg+xml</dc:format>
        <dc:type
           rdf:resource="http://purl.org/dc/dcmitype/StillImage" />
      </cc:Work>
    </rdf:RDF>
  </metadata>
  <sodipodi:namedview
     pagecolor="#ffffff"
     bordercolor="#666666"
     borderopacity="1"
     objecttolerance="10"
     gridtolerance="10"
     guidetolerance="10"
     inkscape:pageopacity="0"
     inkscape:pageshadow="2"
     inkscape:window-width="1294"
     inkscape:window-height="704"
     id="namedview4975"
     showgrid="false"
     inkscape:zoom="0.77291667"
     inkscape:cx="720"
     inkscape:cy="165.5"
     inkscape:window-x="72"
     inkscape:window-y="27"
     inkscape:window-maximized="1"
     inkscape:current-layer="svg4973" />
  <g
     clip-path="url(#clip0_34_2543)"
     id="g4966">
    <path
       d="M1381.09 211.065L1480.88 245.001H1337.7L1319.35 242.998L1310.45 237.435L1340.82 211.065H1381.09Z"
       fill="#172B4D"
       id="path4909" />
    <path
       d="M1367.96 148.758V143.418C1367.96 143.418 1356.28 120.275 1354.61 120.052C1352.94 119.83 1217.22 63.3086 1217.22 63.3086L1268.95 164.001L1289.42 185.809L1367.96 148.758Z"
       fill="white"
       stroke="#36B37E"
       stroke-width="1.35786"
       stroke-miterlimit="10"
       id="path4911" />
    <mask
       id="mask0_34_2543"
       style="mask-type:alpha"
       maskUnits="userSpaceOnUse"
       x="1216"
       y="62"
       width="154"
       height="126">
      <path
         d="M1368.38 149.363V144.022C1368.38 144.022 1356.7 120.879 1355.03 120.657C1353.36 120.434 1217.64 63.9131 1217.64 63.9131L1269.37 164.606L1289.84 186.413L1368.38 149.363Z"
         fill="white"
         stroke="#36B37E"
         stroke-width="1.35786"
         stroke-miterlimit="10"
         id="path4913" />
    </mask>
    <g
       mask="url(#mask0_34_2543)"
       id="g4940">
      <path
         d="M1311.34 122.611L1294.32 123.168L1286.53 109.371L1270.18 110.15L1277.85 123.613L1261.61 124.169L1269.18 137.854L1285.53 137.52L1302.44 137.075L1310.67 151.317L1328.14 151.206L1336.81 165.892H1355.17L1346.16 150.983L1337.37 136.297L1319.68 136.742L1311.34 122.611Z"
         fill="#C5E9DA"
         id="path4916" />
      <path
         d="M1303.22 108.703L1295.21 95.1289L1278.74 96.019L1286.53 109.371L1303.22 108.703Z"
         fill="#36B37E"
         id="path4918" />
      <path
         d="M1328.8 121.944L1320.35 107.925L1303.22 108.704L1311.34 122.611L1328.8 121.944Z"
         fill="#36B37E"
         id="path4920" />
      <path
         d="M1337.93 107.145L1329.36 93.2373L1312.12 94.1274L1320.35 107.924L1337.93 107.145Z"
         fill="#36B37E"
         id="path4922" />
      <path
         d="M1346.71 121.387L1328.8 121.943L1337.37 136.296L1355.61 135.962L1374.3 135.517L1365.07 120.83L1356.06 106.366L1337.93 107.145L1346.71 121.387Z"
         fill="#36B37E"
         id="path4924" />
      <path
         d="M1254.27 110.817L1270.18 110.15L1262.72 96.7984L1278.74 96.0195L1271.18 82.7793L1255.38 83.7807L1239.92 84.782L1247.04 97.6885L1231.69 98.4673L1216.78 99.2461L1223.56 112.153L1238.69 111.485L1245.81 124.725L1261.61 124.169L1254.27 110.817Z"
         fill="#172B4D"
         id="path4926" />
      <path
         d="M1230.46 125.17L1237.47 138.521L1253.16 138.187L1245.81 124.725L1230.46 125.17Z"
         fill="#36B37E"
         id="path4928" />
      <path
         d="M1218.11 73.2103L1224.79 85.7829L1239.92 84.7816L1232.91 72.0977L1218.11 73.2103Z"
         fill="#36B37E"
         id="path4930" />
      <path
         d="M1295.21 95.1292L1312.12 94.1278L1304 80.665L1296.1 67.4248L1279.74 68.6487L1263.72 69.8726L1271.18 82.779L1287.42 81.7777L1295.21 95.1292Z"
         fill="#36B37E"
         id="path4932" />
      <path
         d="M1338.48 78.4395L1321.02 79.5521L1329.36 93.2374L1347.16 92.3473L1338.48 78.4395Z"
         fill="#36B37E"
         id="path4934" />
      <path
         d="M1374.53 105.588L1365.4 91.3467L1347.16 92.348L1356.06 106.367L1374.53 105.588Z"
         fill="#36B37E"
         id="path4936" />
      <path
         d="M1253.16 138.187L1260.61 151.984L1276.85 151.761L1269.18 137.854L1253.16 138.187Z"
         fill="#36B37E"
         id="path4938" />
    </g>
    <path
       d="M1337.7 145.197L1275.41 158.549L1273.85 162.665L1287.75 181.691L1337.7 145.197Z"
       fill="#172B4D"
       id="path4942" />
    <path
       d="M1373.3 149.426L1434.49 0.222656L1395.11 160.774L1390.88 162.221L1373.3 149.426Z"
       fill="white"
       stroke="#36B37E"
       stroke-width="1.35786"
       stroke-miterlimit="10"
       id="path4944" />
    <path
       d="M1395.44 159.328L1377.2 139.857L1373.3 149.426L1390.88 162.221L1395.11 160.775L1395.44 159.328Z"
       fill="#36B37E"
       id="path4946" />
    <path
       d="M1390.88 162.221L1378.31 151.54L1358.84 136.742L1309.56 156.547L1307.33 168.452L1319.35 185.475L1390.88 162.221Z"
       fill="white"
       stroke="#36B37E"
       stroke-width="1.35786"
       stroke-miterlimit="10"
       id="path4948" />
    <path
       d="M1365.63 170.343L1402 158.549L1381.09 211.065L1351.05 212.956L1365.63 170.343Z"
       fill="white"
       stroke="#36B37E"
       stroke-width="1.35786"
       stroke-miterlimit="10"
       id="path4950" />
    <path
       d="M1326.58 182.915L1319.35 185.474L1316.01 232.984L1319.35 242.997L1351.05 212.956L1365.63 170.343L1326.58 182.915Z"
       fill="white"
       stroke="#36B37E"
       stroke-width="1.35786"
       stroke-miterlimit="10"
       id="path4952" />
    <path
       d="M1423.92 151.54L1486.77 185.475L1326.58 182.916L1423.92 151.54Z"
       fill="#C5E9DA"
       stroke="#36B37E"
       stroke-width="1.35786"
       stroke-miterlimit="10"
       id="path4954" />
    <path
       d="M1319.35 185.475V177.687L1268.95 108.37L1262.28 118.94L1310.45 237.435L1316.01 232.984L1319.35 185.475Z"
       fill="white"
       stroke="#36B37E"
       stroke-width="1.35786"
       stroke-miterlimit="10"
       id="path4956" />
    <path
       d="M1268.95 108.369L1262.28 118.939L1239.81 139.857L1257.61 103.919L1268.95 108.369Z"
       fill="white"
       stroke="#36B37E"
       stroke-width="1.35786"
       stroke-miterlimit="10"
       id="path4958" />
    <path
       d="M1389.1 190.816L1326.58 182.916L1391.88 184.029L1389.1 190.816Z"
       fill="#172B4D"
       id="path4960" />
    <path
       d="M1333.37 180.802L1311.56 162.666L1310.67 165.781L1319.35 177.686V185.475L1333.37 180.802Z"
       fill="#172B4D"
       id="path4962" />
    <path
       d="M1305.78 226.085L1300.66 232.427L1293.98 226.085L1259.16 121.944L1262.28 118.939L1305.78 226.085Z"
       fill="#C5E9DA"
       stroke="#36B37E"
       stroke-width="1.35786"
       stroke-miterlimit="10"
       id="path4964" />
  </g>
  <defs
     id="defs4971">
    <clipPath
       id="clip0_34_2543">
      <rect
         width="273"
         height="245"
         fill="white"
         transform="matrix(-1 0 0 1 1489 0)"
         id="rect4968" />
    </clipPath>
    <mask
       id="mask0_73_397"
       maskUnits="userSpaceOnUse"
       x="-54"
       y="38"
       width="166"
       height="92">
      <path
         style="fill:#ffffff;stroke:#36b37e;stroke-width:1.43684995;stroke-linejoin:round;stroke-miterlimit:10"
         inkscape:connector-curvature="0"
         d="M -52.6226,39.0049 110.742,99.2111 78.3906,110.354 -3.28582,129.256 Z"
         stroke-miterlimit="10"
         id="path5091" />
    </mask>
  </defs>
  <path
     inkscape:connector-curvature="0"
     style="fill:#172b4d"
     d="m 5.124382,329.66761 228.437678,-2.953 -88.521,-24.353 9.977,-21.1057 56.617,-7.7697 -14.502,-3.363 -38.982,-1.7394 z"
     id="path5061" />
  <path
     inkscape:connector-curvature="0"
     style="fill:#36b37e"
     d="m 131.46606,221.88221 -6.961,0.116 -57.8924,-21.56953 65.4344,37.10883 10.673,-8.8133 z"
     id="path5063" />
  <path
     inkscape:connector-curvature="0"
     style="fill:#172b4d"
     d="m 131.46706,221.88201 112.653,-20.64181 -56.269,54.61951 z"
     id="path5065" />
  <path
     inkscape:connector-curvature="0"
     style="fill:#ffffff;stroke:#36b37e;stroke-width:1.43684995;stroke-linejoin:round;stroke-miterlimit:10"
     d="m 66.61266,200.42868 112.4214,63.89673 -25.292,4.6386 -61.9536,4.5227 z"
     stroke-miterlimit="10"
     id="path5067" />
  <path
     inkscape:connector-curvature="0"
     style="fill:#ffffff;stroke:#36b37e;stroke-width:1.43684995;stroke-linejoin:round;stroke-miterlimit:10"
     d="m 179.03306,264.32521 65.086,-63.08501 -46.987,68.88321 z"
     stroke-miterlimit="10"
     id="path5069" />
  <path
     inkscape:connector-curvature="0"
     style="fill:#ffffff;stroke:#36b37e;stroke-width:1.43684995;stroke-linejoin:round;stroke-miterlimit:10"
     d="m 132.04706,237.53791 29.12,-24.00471 3.017,2.4352 -9.166,34.67361 z"
     stroke-miterlimit="10"
     id="path5071" />
  <path
     inkscape:connector-curvature="0"
     style="fill:#ffffff;stroke:#36b37e;stroke-width:1.43684995;stroke-linejoin:round;stroke-miterlimit:10"
     d="m 164.18306,215.9677 26.336,37.34081 -11.485,11.0167 -24.016,-13.6839 z"
     stroke-miterlimit="10"
     id="path5073" />
  <path
     inkscape:connector-curvature="0"
     style="fill:#ffffff;stroke:#36b37e;stroke-width:1.43684995;stroke-linejoin:round;stroke-miterlimit:10"
     d="m 197.13306,270.12341 -43.391,-1.1596 25.292,-4.6386 z"
     stroke-miterlimit="10"
     id="path5075" />
  <path
     inkscape:connector-curvature="0"
     style="fill:#ffffff;stroke:#36b37e;stroke-width:1.43684995;stroke-linejoin:round;stroke-miterlimit:10"
     d="m 47.237962,252.26441 -9.2814,1.6235 -81.6764,-16.467 95.1345,35.4853 12.413798,-14.0318 z"
     stroke-miterlimit="10"
     id="path5077" />
  <path
     inkscape:connector-curvature="0"
     style="fill:#c5e9da;stroke:#36b37e;stroke-width:1.43684995;stroke-miterlimit:10"
     d="m 47.238162,252.26481 145.717898,-51.02461 -63.461,84.07471 z"
     stroke-miterlimit="10"
     id="path5079" />
  <path
     inkscape:connector-curvature="0"
     style="fill:#ffffff;stroke:#36b37e;stroke-width:1.43684995;stroke-linejoin:round;stroke-miterlimit:10"
     d="m -43.719838,237.42091 163.468898,60.8816 -32.833,11.5961 -81.676468,18.903 z"
     stroke-miterlimit="10"
     id="path5081" />
  <path
     inkscape:connector-curvature="0"
     style="fill:#ffffff;stroke:#36b37e;stroke-width:1.43684995;stroke-linejoin:round;stroke-miterlimit:10"
     d="m 119.74906,298.30291 73.207,-97.06271 -47.915,101.12141 z"
     stroke-miterlimit="10"
     id="path5083" />
  <path
     inkscape:connector-curvature="0"
     style="fill:#36b37e"
     d="m 51.414462,272.90691 33.761098,-37.9206 4.5247,2.4353 -4.8727,47.8935 z"
     id="path5085" />
  <path
     inkscape:connector-curvature="0"
     style="fill:#ffffff;stroke:#36b37e;stroke-width:1.43684995;stroke-linejoin:round;stroke-miterlimit:10"
     d="m 89.70026,237.42091 42.8108,43.9507 -12.762,16.9309 -34.9216,-12.9881 z"
     stroke-miterlimit="10"
     id="path5087" />
  <path
     inkscape:connector-curvature="0"
     style="fill:#ffffff;stroke:#36b37e;stroke-width:1.43684995;stroke-linejoin:round;stroke-miterlimit:10"
     d="m 145.04106,302.36161 -58.1252,7.538 32.8332,-11.5969 z"
     stroke-miterlimit="10"
     id="path5089" />
  <g
     transform="translate(8.700062,198.8486)"
     mask="url(#mask0_73_397)"
     id="g5114">
    <path
       style="fill:#c5e9da"
       inkscape:connector-curvature="0"
       d="m 45.731,101.889 -17.7507,0.58 -8.2373,-14.2639 -17.05457,0.6958 8.00527,14.1481 -16.82261,0.463 7.77318,14.264 17.17063,-0.348 17.5186,-0.464 8.5854,14.96 18.3307,-0.232 9.0494,15.307 h 19.0269 l -9.2814,-15.539 -9.1654,-15.191 -18.5628,0.348 z"
       id="path5094" />
    <path
       style="fill:#c5e9da"
       inkscape:connector-curvature="0"
       d="M 37.1459,87.3938 28.7927,73.2461 11.6221,74.1738 19.7433,88.2056 Z"
       id="path5096" />
    <path
       style="fill:#36b37e"
       inkscape:connector-curvature="0"
       d="M 63.8301,101.31 55.1287,86.582 37.146,87.3938 45.7313,101.889 Z"
       id="path5098" />
    <path
       style="fill:#172b4d"
       inkscape:connector-curvature="0"
       d="M 73.4594,85.886 64.526,71.2744 46.4272,72.3181 55.1286,86.5818 Z"
       id="path5100" />
    <path
       style="fill:#36b37e"
       inkscape:connector-curvature="0"
       d="m 82.5089,100.614 -18.6788,0.695 9.0494,14.96 18.9108,-0.464 19.4907,-0.464 -9.629,-15.307 -9.3976,-14.9598 -18.7949,0.8118 z"
       id="path5102" />
    <path
       style="fill:#36b37e"
       inkscape:connector-curvature="0"
       d="M -13.902,89.5972 2.68848,88.9014 -5.08471,75.1016 11.6218,74.1739 3.73264,60.374 l -16.47454,1.0437 -16.1264,1.0437 7.4251,13.4519 -15.8944,0.9278 -15.6624,0.8117 7.0771,13.336 15.8944,-0.6958 7.4251,13.8 16.47454,-0.58 z"
       id="path5104" />
    <path
       style="fill:#36b37e"
       inkscape:connector-curvature="0"
       d="M 28.7925,73.2457 46.4272,72.3179 37.9579,58.2862 29.7206,44.4863 12.666,45.7619 -4.04053,46.9216 3.73266,60.3735 20.6712,59.3299 Z"
       id="path5106" />
    <path
       style="fill:#36b37e"
       inkscape:connector-curvature="0"
       d="M 74.0395,55.9668 55.8247,57.1264 64.526,71.2742 83.0889,70.3465 Z"
       id="path5108" />
    <path
       style="fill:#36b37e"
       inkscape:connector-curvature="0"
       d="M 111.629,84.1463 102,69.3027 83.0889,70.3464 92.2543,85.074 Z"
       id="path5110" />
    <path
       style="fill:#36b37e"
       inkscape:connector-curvature="0"
       d="m -15.062,118.124 7.77317,14.38 16.93859,-0.232 -8.00522,-14.496 z"
       id="path5112" />
  </g>
</svg>
